<?xml version="1.0" encoding="UTF-8" standalone="no"?>
<svg version="1.0">
  <style>
  <!-- This will be removed by svgo -->
  svg {
    color: red;
    background: white;
  }
  </style>
  <defs
     id="defs16" />
   <g>
   				<path fill="#FFFFFF" d="M249 125c0 69-56 125-125 125C56 249 0 193 0 125 0 56 56 0 125 0 193 0 249 56 249 125z"/>
   				<circle fill="#E9E9EA" cx="125" cy="125" r="117"/>
   				<path d="M121 98c0-1 0-2 0-3C121 96 121 97 121 98z"/>
   				<path fill="#231F20" d="M183 66l6 64 4 42c0 0 3 45-44 53 0 0-24-26-25-28 -1-1-4-44-4-44s22-53 22-54c0-1 9-30 9-31 0-1 11-5 12-6C163 60 183 66 183 66z"/>
   				<path fill="#231F20" d="M64 67l-6 64L55 172c0 0-2 44 46 52 0 0 23-25 23-27 1-1 4-44 4-44s-22-53-22-54c0-1-9-30-9-31 0-1-11-5-12-6C84 62 64 67 64 67z"/>
   				<path fill="#F8B390" d="M72 152c0 6-5 12-12 12l0 0c-6 0-12-5-12-12l0 0c0-6 5-12 12-12l0 0C67 140 72 145 72 152L72 152z"/>
   				<path opacity="0" fill="#F1946E" enable-background="new    " d="M100 197c6 2 14 4 23 4 10 0 18-2 24-4l0-19c-6-3-15-4-25-4 -9 0-17 2-23 4L100 197z"/>
   				<path fill="#F8B390" d="M146 28c-6-1-10-1-10-1h-26c0 0-4 0-10 1C87 31 64 40 64 70v5 72 5c0 30 23 39 37 42 6 1 10 1 10 1h26c0 0 4 0 10-1C160 192 183 183 183 153V147v-72V70C183 40 160 31 146 28z"/>
   				<path d="M139 169h-14 0l0 0h-14c0 0-3 0-2 3 1 2 6 6 13 8 0 0 1 0 1 0h0c0 0 0 0 1 0 1 0 1 0 1 0s1 0 1 0 1 0 1 0h0c0 0 1 0 1 0 8-1 12-5 13-8C142 169 139 169 139 169z"/>
   				<path fill="#FFFFFF" d="M124 174L124 174c0 0 0 0 1 0 0 0 1 0 1 0 0 0 1 0 1 0 0 0 1 0 1 0h0c0 0 1 0 1 0 4-1 7-2 9-4l0 0H125l0 0 0 0h-10c2 2 4 3 8 4C123 174 123 174 124 174z"/>
   				<path fill="#231F20" d="M183 70c0-30-23-39-37-42 -6-1-10-1-10-1h-26c0 0-4 0-10 1C87 31 64 40 64 70v5L60 136l4 5c0 0 4 5 12 4 10-2 9-14 9-14s0-22 0-35c0-15 14-18 14-18s-1 23 24 28c0 0-4-7-4-16 0 0 5 13 24 19 18 6 39 9 40 30l5-9L183 75V70L183 70z"/>
   				<rect x="60" y="166" fill="#FFFFFF" width="2" height="15"/>
   				<path d="M111 151h-1V146c0-2-2-4-4-4s-4 2-4 4v5h-1V146c0-3 2-5 5-5 3 0 5 2 5 5V151z"/>
   				<path d="M145 151h-1V146c0-2-2-4-4-4 -2 0-4 2-4 4v5h-1V146c0-3 2-5 5-5 3 0 5 2 5 5V151z"/><path fill="#231F20" d="M78 67c0 0-9 15-10 19 -1 4 7 6 7 6l8-21L78 67z"/><path fill="#231F20" d="M166 67c0 0 11 11 13 19 3 8-10 6-10 6l-4-24"/><path fill="#F8B390" d="M125 242c8 0 16-1 23-2L148 189h-47l0 50C108 241 116 242 125 242z"/><path fill="#E86262" d="M125 242c8 0 16-1 23-2l0-31L124 229V229l-24-20 0 31C108 241 116 242 125 242z"/><polygon fill="#FFDD2E" points="124 231 99 209 100 207 124 228 148 207 149 209 "/>
   			</g>
</svg>
